<?xml version="1.0" encoding="UTF-8" standalone="no"?>
<svg
   width="190.32484"
   height="190.88382"
   viewBox="110 140 62.331385 92.769536"
   version="1.1"
   id="svg1"
   sodipodi:docname="garlic-logo.svg"
   inkscape:version="1.3.2 (091e20ef0f, 2023-11-25)"
   inkscape:export-filename="logo-pair.png"
   inkscape:export-xdpi="96"
   inkscape:export-ydpi="96"
   xmlns:inkscape="http://www.inkscape.org/namespaces/inkscape"
   xmlns:sodipodi="http://sodipodi.sourceforge.net/DTD/sodipodi-0.dtd"
   xmlns="http://www.w3.org/2000/svg"
   xmlns:svg="http://www.w3.org/2000/svg">
  <sodipodi:namedview
     id="namedview1"
     pagecolor="#ffffff"
     bordercolor="#000000"
     borderopacity="0.25"
     inkscape:showpageshadow="2"
     inkscape:pageopacity="0.0"
     inkscape:pagecheckerboard="0"
     inkscape:deskcolor="#d1d1d1"
     showgrid="false"
     inkscape:zoom="1.626"
     inkscape:cx="-9.2250923"
     inkscape:cy="108.54859"
     inkscape:window-width="1920"
     inkscape:window-height="1011"
     inkscape:window-x="0"
     inkscape:window-y="493"
     inkscape:window-maximized="1"
     inkscape:current-layer="layer1"
     inkscape:export-bgcolor="#ffffff00" />
  <defs
     id="defs1" />
  <g
     inkscape:groupmode="layer"
     id="layer1"
     inkscape:label="backdrop"
     transform="translate(-2.9445642,-11.632933)">
    <path
       id="filling-4"
       fill="#ffcb47"
       stroke="#ffcb47"
       stroke-width="0"
       d="m 154.48053,164.59923 c 2.91091,3.71848 7.95766,9.48981 15.1405,17.31401 4.28699,5.57226 7.02971,9.69398 8.22816,12.36565 0.86433,1.92674 1.70864,5.4018 2.53316,10.42517 l -0.39573,7.11246 c -1.11773,2.67527 -2.23479,4.42955 -3.35162,5.26217 -1.13549,0.84678 -3.77973,1.88109 -7.93271,3.10293 h -5.28847 l -3.50181,-2.2132 -1.35495,-3.31811 0.68354,5.53131 -1.33111,2.48167 -2.87808,2.42838 -4.32926,1.35989 -6.42757,0.38854 c -1.1229,0.0744 -2.52282,-0.12142 -4.2002,-0.58753 -0.77528,-0.21541 -1.93348,-0.95134 -3.47483,-2.2078 l -4.98857,-6.93978 1.97872,3.07663 c -4.03212,4.00458 -7.69416,5.64598 -10.98622,4.92421 -3.75673,-0.82362 -6.97208,-2.91473 -9.64609,-6.27331 l -2.93126,-5.77213 c -1.2729,-4.37603 -1.06031,-8.20815 0.6378,-11.49636 2.18277,-4.22673 6.32001,-9.12846 12.41172,-14.70519 3.08465,-3.42775 5.24321,-5.99104 6.47568,-7.68981 1.17322,-1.61709 3.6957,-6.4737 7.56717,-14.5698 9.2998,-1.42897 15.08722,-1.42897 17.36203,0 z"
       sodipodi:nodetypes="ccsccscccccccccscccsccscscc"
       style="fill:#ffffff;fill-opacity:1" />
  </g>
  <g
     inkscape:groupmode="layer"
     id="layer2"
     inkscape:label="shapes"
     transform="translate(-2.9445642,-11.632933)">
    <path
       id="hair"
       fill="none"
       stroke="#555555"
       stroke-width="2.2485"
       stroke-linecap="round"
       stroke-linejoin="bevel"
       d="m 143.18131,157.37892 -0.57562,1.68368 2.73418,7.93271 -0.68354,0.91739"
       sodipodi:nodetypes="cccc" />
    <path
       id="filling"
       fill="#ffcb47"
       stroke="#ffcb47"
       stroke-width="0"
       d="m 154.41983,164.32329 c 2.91091,3.71848 7.95766,9.48981 15.1405,17.31401 4.28699,5.57226 7.02971,9.69398 8.22816,12.36565 0.86433,1.92674 1.70864,5.4018 2.53316,10.42517 l -0.39573,7.11246 c -1.11773,2.67527 -2.23479,4.42955 -3.35162,5.26217 -1.13549,0.84678 -3.77973,1.88109 -7.93271,3.10293 h -5.28847 l -3.50181,-2.2132 -1.35495,-3.31811 0.68354,5.53131 -1.33111,2.48167 -2.87808,2.42838 -4.32926,1.35989 -6.42757,0.38854 c -1.1229,0.0744 -2.52282,-0.12142 -4.2002,-0.58753 -0.77528,-0.21541 -1.93348,-0.95134 -3.47483,-2.2078 l -4.98857,-6.93978 1.97872,3.07663 c -4.03212,4.00458 -7.69416,5.64598 -10.98622,4.92421 -3.75673,-0.82362 -6.97208,-2.91473 -9.64609,-6.27331 l -2.93126,-5.77213 c -1.2729,-4.37603 -1.06031,-8.20815 0.6378,-11.49636 2.18277,-4.22673 6.32001,-9.12846 12.41172,-14.70519 3.08465,-3.42775 5.24321,-5.99104 6.47568,-7.68981 1.17322,-1.61709 3.6957,-6.4737 7.56717,-14.5698 9.2998,-1.42897 15.08722,-1.42897 17.36203,0 z"
       sodipodi:nodetypes="ccsccscccccccccscccsccscscc"
       style="fill:#ffc848;fill-opacity:0.5" />
    <path
       id="eye-left"
       fill="none"
       stroke="#555555"
       stroke-width="2.2485"
       stroke-linecap="round"
       stroke-linejoin="bevel"
       d="m 136.15679,188.86775 0.98333,-3.34577 1.70288,-1.33831 1.40307,1.54337 0.79147,2.56869 0.14391,1.51099"
       sodipodi:nodetypes="cccccc" />
    <path
       id="eye-right"
       fill="none"
       stroke="#555555"
       stroke-width="2.2485"
       stroke-linecap="round"
       stroke-linejoin="bevel"
       d="m 152.17459,192.06622 -0.51565,-2.86009 -0.77949,-1.44623 -1.09126,-0.87422 -1.35511,0.4425 -0.81546,1.31673 -0.1439,1.35989 -0.0241,1.198"
       sodipodi:nodetypes="cccccccc" />
    <path
       id="mouth"
       fill="#ffffff"
       stroke="#555555"
       stroke-width="2.2485"
       stroke-linecap="round"
       stroke-linejoin="bevel"
       d="m 136.39958,202.19511 1.00733,2.20174 1.95469,0.1511 2.2545,-1.14404 0.49169,-2.23411 -0.94739,-1.57575 -1.47502,-0.61519 -1.46301,1.0469 c -0.08,0 -0.68754,0.72312 -1.82279,2.16935 z"
       sodipodi:nodetypes="ccccccccc" />
    <path
       id="leg-right"
       fill="none"
       stroke="#555555"
       stroke-width="2.2485"
       stroke-linecap="round"
       stroke-linejoin="bevel"
       d="m 143.34395,236.0649 c -3.71893,-0.72723 -4.66994,0.39918 -4.85492,0.0456 -0.73776,-2.67716 -0.91714,-6.11581 -0.53816,-10.31599"
       sodipodi:nodetypes="ccc" />
    <path
       id="toes-right"
       fill="none"
       stroke="#555555"
       stroke-width="2.2485"
       stroke-linecap="round"
       stroke-linejoin="bevel"
       d="m 133.03169,241.06921 c 0.69956,-1.39913 2.60748,-3.05268 5.72374,-4.96057"
       sodipodi:nodetypes="cc" />
    <path
       id="leg-left"
       fill="none"
       stroke="#555555"
       stroke-width="2.2485"
       stroke-linecap="round"
       stroke-linejoin="bevel"
       d="m 159.77997,235.11096 c -4.32654,-0.27681 -5.90845,-0.058 -4.74572,0.65609 l -0.0241,-10.6525"
       sodipodi:nodetypes="ccc" />
    <path
       id="outline"
       fill="none"
       stroke="#555555"
       stroke-width="2.2485"
       stroke-linecap="round"
       stroke-linejoin="bevel"
       d="m 150.40363,157.21233 c 2.82659,6.98042 8.93194,15.05983 18.31606,24.23816 4.28699,5.57224 7.02971,9.69396 8.22816,12.36563 0.86433,1.92674 1.70864,5.4018 2.53316,10.42517 l -0.39573,7.11246 c -1.11773,2.67549 -2.23479,4.42955 -3.35162,5.26217 -1.13549,0.84678 -3.77973,1.88109 -7.93271,3.10292 h -5.28847 l -3.50181,-2.21319 -1.35495,-3.31812 0.68354,5.53131 -1.33111,2.48168 -2.87808,2.42838 -4.32926,1.35989 -6.42757,0.38854 c -1.1229,0.0744 -2.52282,-0.12142 -4.2002,-0.58753 -0.77528,-0.21541 -1.93348,-0.95134 -3.47483,-2.20781 l -4.98857,-6.93977 1.97872,3.07662 c -4.03212,4.00459 -7.69416,5.64599 -10.98622,4.92422 -3.75672,-0.82362 -6.97208,-2.91473 -9.64609,-6.27331 l -2.93125,-5.77213 c -1.27291,-4.37603 -1.06031,-8.20793 0.63779,-11.49636 2.18277,-4.22673 6.32001,-9.12846 12.41172,-14.70519 3.08465,-3.42784 5.24321,-5.99113 6.47568,-7.68981 1.17322,-1.6171 4.09616,-7.14838 8.76923,-16.59391 l -1.07929,-3.64257"
       sodipodi:nodetypes="ccsccscccccccccscccsccscscc" />
    <path
       id="toes-left"
       fill="none"
       stroke="#555555"
       stroke-width="2.2485"
       stroke-linecap="round"
       stroke-linejoin="bevel"
       d="m 149.57977,239.76126 c 2.09684,-2.51279 4.06909,-4.06459 5.91678,-4.65543"
       sodipodi:nodetypes="cc" />
  </g>
</svg>
