<?xml version="1.0" encoding="UTF-8" standalone="no"?>
<!-- Created with Inkscape (http://www.inkscape.org/) -->

<svg
   width="1024"
   height="1024"
   viewBox="0 0 1024 1024"
   version="1.1"
   id="svg1"
   inkscape:version="1.3.2 (091e20ef0f, 2023-11-25)"
   sodipodi:docname="square-logo.svg"
   inkscape:export-filename="logo-pair.png"
   inkscape:export-xdpi="96"
   inkscape:export-ydpi="96"
   xmlns:inkscape="http://www.inkscape.org/namespaces/inkscape"
   xmlns:sodipodi="http://sodipodi.sourceforge.net/DTD/sodipodi-0.dtd"
   xmlns="http://www.w3.org/2000/svg"
   xmlns:svg="http://www.w3.org/2000/svg">
  <sodipodi:namedview
     id="namedview1"
     pagecolor="#ffffff"
     bordercolor="#000000"
     borderopacity="0.25"
     inkscape:showpageshadow="2"
     inkscape:pageopacity="0.0"
     inkscape:pagecheckerboard="true"
     inkscape:deskcolor="#d1d1d1"
     inkscape:zoom="0.4234375"
     inkscape:cx="238.52399"
     inkscape:cy="617.56458"
     inkscape:window-width="1920"
     inkscape:window-height="1011"
     inkscape:window-x="0"
     inkscape:window-y="493"
     inkscape:window-maximized="1"
     inkscape:current-layer="layer1" />
  <defs
     id="defs1" />
  <g
     inkscape:groupmode="layer"
     id="layer5"
     inkscape:label="purple bg"
     style="display:none">
    <rect
       style="display:inline;fill:#570ef7;fill-opacity:1;stroke-width:1.10082"
       id="rect4"
       width="401.84296"
       height="285.64792"
       x="-20.000004"
       y="-26.176071"
       inkscape:label="purple bg" />
  </g>
  <g
     inkscape:groupmode="layer"
     id="layer6"
     inkscape:label="white backdrops">
    <path
       id="path7-1"
       fill="none"
       stroke="#555555"
       stroke-width="14.9191"
       stroke-linecap="round"
       stroke-linejoin="bevel"
       d="m 655.31925,636.56117 c -1.24331,56.78501 39.93665,115.73803 -4.75722,170.30244 49.47405,18.59179 99.05853,34.47821 150.79006,-2.2056 -10.02228,-30.15749 -25.9808,-13.91023 -21.33269,-158.75235 0,0 134.73269,-39.97972 160.34,-98.40019 C 976.44622,465.17705 968.569,325.01394 891.94666,281.1242 790.92311,223.25731 575.81263,133.69267 566.36591,366.57848 375.09655,364.46529 460.08954,642.66363 655.31925,636.56117 Z"
       sodipodi:nodetypes="ccccascc"
       style="display:inline;fill:#ffffff;fill-opacity:0.999385;stroke:#ffffff;stroke-opacity:1"
       inkscape:label="broccoli backdrop" />
    <path
       id="outline-3"
       fill="none"
       stroke="#555555"
       stroke-width="12.6624"
       stroke-linecap="round"
       stroke-linejoin="bevel"
       d="m 304.49018,349.44446 c 15.75331,39.72079 75.42594,111.12327 92.6532,125.77745 23.89252,31.70781 40.6959,51.44251 47.37515,66.64515 4.81715,10.96376 8.31255,34.05517 12.59994,51.46074 l 1.42208,39.39311 c -1.55832,15.45216 -5.42981,39.89463 -11.65418,44.6325 -6.3284,4.81844 -25.1319,17.249 -37.95921,21.50811 l -32.4785,1.73892 -22.05277,-5.56872 -2.01069,-27.64508 3.80953,31.47488 -7.41862,14.12156 -16.04031,13.81821 -24.12807,7.73824 -35.8225,2.2109 c -6.25818,0.42336 -14.06032,-0.69091 -23.40879,-3.34323 -4.32083,-1.22575 -10.77578,-5.41342 -19.36613,-12.56313 l -27.80259,-39.48948 13.41662,23.64332 c -22.47204,22.7874 -43.17676,24.67665 -63.61772,21.88399 -17.81231,-2.43351 -28.36734,-18.22569 -43.2703,-37.33707 L 92.43104,641.54585 c -0.0501,-16.20944 5.3276,-47.91376 15.45589,-64.84907 7.60843,-12.72192 30.98039,-39.65851 71.49887,-84.74919 8.21916,-10.62632 18.79174,-32.40957 25.66061,-42.07561 6.53866,-9.20181 24.21508,-47.56409 28.3846,-72.00457 l -1.06193,-25.41021"
       sodipodi:nodetypes="ccsccscccccccccscccsccscscc"
       style="display:inline;fill:#ffffff;fill-opacity:1;stroke:#ffffff;stroke-opacity:1"
       inkscape:label="g main" />
    <path
       id="hair-3"
       fill="none"
       stroke="#555555"
       stroke-width="12.6624"
       stroke-linecap="round"
       stroke-linejoin="bevel"
       d="m 269.63485,346.41261 -2.62328,10.41652 16.7342,42.01894 -3.80956,5.22023"
       sodipodi:nodetypes="cccc"
       style="display:inline;stroke:#ffffff;stroke-opacity:1"
       inkscape:label="g hair" />
    <path
       id="leg-right-7"
       fill="none"
       stroke="#555555"
       stroke-width="2.2485"
       stroke-linecap="round"
       stroke-linejoin="bevel"
       d="m 275.17249,781.63769 c -20.72657,-4.13816 -26.02679,2.27145 -27.05774,0.25955 -4.11172,-15.23388 -5.11145,-34.80085 -2.9993,-58.70122"
       sodipodi:nodetypes="ccc"
       style="display:inline;stroke:#ffffff;stroke-width:19.9364;stroke-dasharray:none;stroke-opacity:1"
       inkscape:label="g left leg" />
    <path
       id="toes-right-0"
       fill="none"
       stroke="#555555"
       stroke-width="2.2485"
       stroke-linecap="round"
       stroke-linejoin="bevel"
       d="m 219.92165,809.94177 c 3.89884,-7.9615 14.53216,-17.3707 31.89988,-28.2272"
       sodipodi:nodetypes="cc"
       style="display:inline;stroke:#ffffff;stroke-width:19.9364;stroke-dasharray:none;stroke-opacity:1"
       inkscape:label="g left toes" />
    <path
       id="toes-left-6"
       fill="none"
       stroke="#555555"
       stroke-width="2.2485"
       stroke-linecap="round"
       stroke-linejoin="bevel"
       d="m 299.69252,803.27097 c 11.68625,-14.29856 22.67812,-23.12879 32.97577,-26.49088"
       sodipodi:nodetypes="cc"
       style="display:inline;stroke:#ffffff;stroke-width:19.9364;stroke-dasharray:none;stroke-opacity:1"
       inkscape:label="g right toes" />
    <path
       id="leg-left-9"
       fill="none"
       stroke="#555555"
       stroke-width="2.2485"
       stroke-linecap="round"
       stroke-linejoin="bevel"
       d="m 356.54087,776.8093 c -24.11292,-1.57514 -32.92931,-0.33006 -26.44912,3.73333 l -0.13431,-60.61604"
       sodipodi:nodetypes="ccc"
       style="display:inline;stroke:#ffffff;stroke-width:19.9364;stroke-dasharray:none;stroke-opacity:1"
       inkscape:label="g right leg" />
  </g>
  <g
     inkscape:label="logos"
     inkscape:groupmode="layer"
     id="layer1">
    <path
       id="filling"
       fill="#ffcb47"
       stroke="#ffcb47"
       stroke-width="0"
       d="m 326.56062,398.02128 c 14.29263,19.91236 39.07231,50.81768 74.34022,92.71608 21.04924,29.83931 34.51605,51.91099 40.40047,66.21771 4.24387,10.31765 8.38946,28.92651 12.43787,55.82652 l -1.94305,38.08704 c -5.48805,14.32601 -10.97286,23.72013 -16.45652,28.17878 -5.5753,4.5345 -18.55856,10.07319 -38.94981,16.61612 h -25.96652 l -17.19398,-11.85162 -6.65284,-17.76841 3.3562,29.62003 -6.53577,13.28928 -14.13145,13.00391 -21.25677,7.28217 -31.55953,2.08061 c -5.51346,0.39841 -12.3871,-0.65021 -20.62308,-3.14621 -3.80665,-1.1535 -9.49344,-5.0944 -17.06151,-11.82269 l -24.49401,-37.16234 9.71558,16.47527 c -19.79781,21.44441 -37.77852,30.23406 -53.94262,26.36903 -18.44563,-4.4105 -34.23308,-15.60833 -47.36254,-33.59343 l -14.39256,-30.9096 c -6.24997,-23.43352 -5.20615,-43.95444 3.13161,-61.56272 10.71745,-22.63403 31.03141,-48.88266 60.94186,-78.74592 15.14571,-18.3555 25.74429,-32.08185 31.79574,-41.1787 5.76055,-8.65949 18.14599,-34.66651 37.15499,-78.02091 45.66227,-7.65211 74.07862,-7.65211 85.24802,0 z"
       sodipodi:nodetypes="ccsccscccccccccscccsccscscc"
       style="display:inline;fill:#ffc847;fill-opacity:0.8"
       inkscape:label="garlic filling" />
    <g
       id="g10"
       inkscape:label="garlic main"
       style="display:inline;stroke-width:2.67819;stroke-dasharray:none"
       transform="matrix(4.9100248,0,0,5.3549738,-360.05642,-481.92565)">
      <path
         id="hair"
         fill="none"
         stroke="#555555"
         stroke-width="2.2485"
         stroke-linecap="round"
         stroke-linejoin="bevel"
         d="m 128.60131,157.37892 -0.57562,1.68368 2.73418,7.93271 -0.68354,0.91739"
         sodipodi:nodetypes="cccc"
         style="display:inline;stroke-width:2.67819;stroke-dasharray:none" />
      <path
         id="outline"
         fill="none"
         stroke="#555555"
         stroke-width="2.2485"
         stroke-linecap="round"
         stroke-linejoin="bevel"
         d="m 135.82363,157.21233 c 2.82659,6.98042 8.93194,15.05983 18.31606,24.23816 4.28699,5.57224 7.02971,9.69396 8.22816,12.36563 0.86433,1.92674 1.70864,5.4018 2.53316,10.42517 l -0.39573,7.11246 c -1.11773,2.67549 -2.23479,4.42955 -3.35162,5.26217 -1.13549,0.84678 -3.77973,1.88109 -7.93271,3.10292 h -5.28847 l -3.50181,-2.21319 -1.35495,-3.31812 0.68354,5.53131 -1.33111,2.48168 -2.87808,2.42838 -4.32926,1.35989 -6.42757,0.38854 c -1.1229,0.0744 -2.52282,-0.12142 -4.2002,-0.58753 -0.77528,-0.21541 -1.93348,-0.95134 -3.47483,-2.20781 l -4.98857,-6.93977 1.97872,3.07662 c -4.03212,4.00459 -7.63118,5.24411 -10.98622,4.92422 -2.47605,-0.23608 -6.97682,-3.02166 -8.625785,-4.95254 -1.401381,-1.64096 -3.143033,-5.09217 -3.951555,-7.0929 -0.531383,-1.31494 -1.06031,-8.20793 0.63779,-11.49636 2.18277,-4.22673 6.32001,-9.12846 12.41172,-14.70519 3.08465,-3.42784 5.24321,-5.99113 6.47568,-7.68981 1.17322,-1.6171 4.09616,-7.14838 8.76923,-16.59391 l -1.07929,-3.64257"
         sodipodi:nodetypes="ccsccscccccccccscccsssscscc"
         style="display:inline;stroke-width:2.67819;stroke-dasharray:none"
         inkscape:label="garlic main" />
      <path
         id="leg-right"
         fill="none"
         stroke="#555555"
         stroke-width="2.2485"
         stroke-linecap="round"
         stroke-linejoin="bevel"
         d="m 128.76395,236.0649 c -3.71893,-0.72723 -4.66994,0.39918 -4.85492,0.0456 -0.73776,-2.67716 -0.91714,-6.11581 -0.53816,-10.31599"
         sodipodi:nodetypes="ccc"
         style="display:inline;stroke-width:2.67819;stroke-dasharray:none" />
      <path
         id="toes-right"
         fill="none"
         stroke="#555555"
         stroke-width="2.2485"
         stroke-linecap="round"
         stroke-linejoin="bevel"
         d="m 118.45169,241.06921 c 0.69956,-1.39913 2.60748,-3.05268 5.72374,-4.96057"
         sodipodi:nodetypes="cc"
         style="display:inline;stroke-width:2.67819;stroke-dasharray:none" />
      <path
         id="leg-left"
         fill="none"
         stroke="#555555"
         stroke-width="2.2485"
         stroke-linecap="round"
         stroke-linejoin="bevel"
         d="m 145.19997,235.11096 c -4.32654,-0.27681 -5.90845,-0.058 -4.74572,0.65609 l -0.0241,-10.6525"
         sodipodi:nodetypes="ccc"
         style="display:inline;stroke-width:2.67819;stroke-dasharray:none" />
      <path
         id="toes-left"
         fill="none"
         stroke="#555555"
         stroke-width="2.2485"
         stroke-linecap="round"
         stroke-linejoin="bevel"
         d="m 134.99977,239.76126 c 2.09684,-2.51279 4.06909,-4.06459 5.91678,-4.65543"
         sodipodi:nodetypes="cc"
         style="display:inline;stroke-width:2.67819;stroke-dasharray:none" />
    </g>
    <g
       id="g8"
       inkscape:label="garlic face"
       style="display:inline;stroke-width:2.67819;stroke-dasharray:none"
       transform="matrix(4.9100248,0,0,5.3549738,-360.05642,-481.92565)">
      <path
         id="eye-left"
         fill="none"
         stroke="#555555"
         stroke-width="2.2485"
         stroke-linecap="round"
         stroke-linejoin="bevel"
         d="m 121.57679,188.86775 0.98333,-3.34577 1.70288,-1.33831 1.40307,1.54337 0.79147,2.56869 0.14391,1.51099"
         sodipodi:nodetypes="cccccc"
         style="stroke-width:2.67819;stroke-dasharray:none" />
      <path
         id="eye-right"
         fill="none"
         stroke="#555555"
         stroke-width="2.2485"
         stroke-linecap="round"
         stroke-linejoin="bevel"
         d="m 137.59459,192.06622 -0.51565,-2.86009 -0.77949,-1.44623 -1.09126,-0.87422 -1.35511,0.4425 -0.81546,1.31673 -0.1439,1.35989 -0.0241,1.198"
         sodipodi:nodetypes="cccccccc"
         style="stroke-width:2.67819;stroke-dasharray:none" />
      <path
         id="mouth"
         fill="#ffffff"
         stroke="#555555"
         stroke-width="2.2485"
         stroke-linecap="round"
         stroke-linejoin="bevel"
         d="m 121.81958,202.19511 1.00733,2.20174 1.95469,0.1511 2.2545,-1.14404 0.49169,-2.23411 -0.94739,-1.57575 -1.47502,-0.61519 -1.46301,1.0469 c -0.08,0 -0.68754,0.72312 -1.82279,2.16935 z"
         sodipodi:nodetypes="ccccccccc"
         style="stroke-width:2.67819;stroke-dasharray:none" />
    </g>
    <path
       id="path7"
       fill="none"
       stroke="#555555"
       stroke-width="2.2485"
       stroke-linecap="round"
       stroke-linejoin="bevel"
       d="m 660.65726,635.57529 c -1.13311,54.77306 36.39811,111.63734 -4.3358,164.26844 45.09054,17.93307 90.28174,33.25658 137.42967,-2.12741 -9.13432,-29.08905 -23.67876,-13.41748 -19.44257,-153.12768 0,0 122.79493,-38.56308 146.13334,-94.91363 32.88944,-79.41143 25.71013,-214.60835 -44.12318,-256.94305 -92.07253,-55.81657 -288.12367,-142.20778 -296.73331,82.42658 -174.32227,-2.03835 -96.85999,266.30299 81.07185,260.41675 z"
       sodipodi:nodetypes="ccccascc"
       style="display:inline;fill:#00a32a;fill-opacity:0.8;stroke-width:15.1175;stroke-dasharray:none"
       inkscape:label="broccoli main" />
    <g
       id="g7"
       inkscape:label="broc head outlines"
       style="display:inline"
       transform="matrix(5.9571114,0,0,6.4969478,-502.72202,-764.60925)">
      <path
         d="m 214.07373,155.53608 c 0,0 -9.97895,1.83234 -13.05552,5.87733 -3.07658,4.04499 -6.16631,9.76655 -0.22075,15.51585"
         style="fill:none;stroke:#555555;stroke-width:2.43;stroke-linecap:round;stroke-linejoin:bevel;stroke-dasharray:none"
         id="path1-2"
         sodipodi:nodetypes="csc"
         inkscape:label="right head" />
      <path
         id="hair-5"
         fill="none"
         stroke="#555555"
         stroke-width="2.2485"
         stroke-linecap="round"
         stroke-linejoin="bevel"
         d="m 188.76015,206.22644 c -25.11377,-21.10077 1.17572,-31.16061 5.63854,-29.64644 10.16035,3.44726 13.27879,1.93744 16.29486,7.02569 4.2218,7.12239 9.09566,8.38361 -2.3209,24.73018"
         sodipodi:nodetypes="csac"
         style="display:inline;stroke-width:2.43;stroke-dasharray:none"
         inkscape:label="left head" />
      <path
         d="m 205.79473,211.94781 c -3.00205,7.43107 1.66972,16.8043 -0.3305,25.28394"
         style="display:inline;fill:none;stroke:#555555;stroke-width:2.43;stroke-linecap:round;stroke-linejoin:bevel;stroke-dasharray:none"
         id="path1-7"
         inkscape:label="stalk" />
    </g>
    <g
       id="g5"
       inkscape:label="broc faces"
       style="display:inline"
       transform="matrix(5.9571114,0,0,6.4969478,-502.72202,-764.60925)">
      <path
         id="eye-right-6"
         fill="none"
         stroke="#555555"
         stroke-width="2.2485"
         stroke-linecap="round"
         stroke-linejoin="bevel"
         d="m 191.91063,198.55072 c 1.19729,1.45187 2.54068,2.05517 3.38688,1.9033 0.8462,-0.15187 2.4282,-0.868 3.26956,-1.22694 0.84136,-0.35894 1.52105,-0.96884 1.99051,-1.98432"
         sodipodi:nodetypes="czzc"
         style="display:inline;stroke-width:2.43;stroke-dasharray:none"
         inkscape:label="left mouth" />
      <path
         d="m 189.48955,187.93303 -0.38789,1.68368"
         style="display:inline;fill:none;stroke:#555555;stroke-width:2.43;stroke-linecap:round;stroke-linejoin:bevel;stroke-dasharray:none"
         id="path1-3"
         inkscape:label="left left eye" />
      <path
         d="m 197.86437,187.48975 -0.38789,1.68368"
         style="display:inline;fill:none;stroke:#555555;stroke-width:2.43;stroke-linecap:round;stroke-linejoin:bevel;stroke-dasharray:none"
         id="path1-3-2"
         inkscape:label="left right eye" />
      <path
         d="m 215.04735,167.834 0.38943,1.68331"
         style="display:inline;fill:none;stroke:#555555;stroke-width:2.43;stroke-linecap:round;stroke-linejoin:bevel;stroke-dasharray:none"
         id="path1-3-29"
         inkscape:label="right right eye" />
      <path
         d="m 208.07765,170.47927 0.38943,1.68332"
         style="display:inline;fill:none;stroke:#555555;stroke-width:2.43;stroke-linecap:round;stroke-linejoin:bevel;stroke-dasharray:none"
         id="path1-3-7"
         inkscape:label="right left eye" />
      <path
         id="eye-right-6-6"
         fill="none"
         stroke="#555555"
         stroke-width="2.2485"
         stroke-linecap="round"
         stroke-linejoin="bevel"
         d="m 217.43625,177.22718 c 1.77294,0.63095 3.23549,0.45873 3.88359,-0.10614 0.6481,-0.56488 1.63779,-1.99178 2.17541,-2.73185 0.5376,-0.74007 0.80762,-1.61246 0.68895,-2.72488"
         sodipodi:nodetypes="czzc"
         style="display:inline;stroke-width:2.43;stroke-dasharray:none"
         inkscape:label="right mouth" />
    </g>
  </g>
</svg>
