<?xml version="1.0" encoding="UTF-8" standalone="no"?>
<svg
   width="362.15393"
   height="227.72998"
   viewBox="110 140 118.60541 110.67677"
   version="1.1"
   id="svg1"
   sodipodi:docname="wip-logo.svg"
   inkscape:version="1.3.2 (091e20ef0f, 2023-11-25)"
   inkscape:export-filename="logo-pair.png"
   inkscape:export-xdpi="96"
   inkscape:export-ydpi="96"
   xmlns:inkscape="http://www.inkscape.org/namespaces/inkscape"
   xmlns:sodipodi="http://sodipodi.sourceforge.net/DTD/sodipodi-0.dtd"
   xmlns="http://www.w3.org/2000/svg"
   xmlns:svg="http://www.w3.org/2000/svg">
  <sodipodi:namedview
     id="namedview1"
     pagecolor="#ffffff"
     bordercolor="#000000"
     borderopacity="0.25"
     inkscape:showpageshadow="2"
     inkscape:pageopacity="0.0"
     inkscape:pagecheckerboard="0"
     inkscape:deskcolor="#d1d1d1"
     showgrid="false"
     inkscape:zoom="1.626"
     inkscape:cx="37.207872"
     inkscape:cy="142.98893"
     inkscape:window-width="1920"
     inkscape:window-height="1011"
     inkscape:window-x="0"
     inkscape:window-y="493"
     inkscape:window-maximized="1"
     inkscape:current-layer="layer1"
     inkscape:export-bgcolor="#ffffff00" />
  <defs
     id="defs1" />
  <g
     inkscape:groupmode="layer"
     id="layer1"
     inkscape:label="backdrop">
    <path
       id="filling-4"
       fill="#ffcb47"
       stroke="#ffcb47"
       stroke-width="0"
       d="m 139.90053,164.59923 c 2.91091,3.71848 7.95766,9.48981 15.1405,17.31401 4.28699,5.57226 7.02971,9.69398 8.22816,12.36565 0.86433,1.92674 1.70864,5.4018 2.53316,10.42517 l -0.39573,7.11246 c -1.11773,2.67527 -2.23479,4.42955 -3.35162,5.26217 -1.13549,0.84678 -3.77973,1.88109 -7.93271,3.10293 h -5.28847 l -3.50181,-2.2132 -1.35495,-3.31811 0.68354,5.53131 -1.33111,2.48167 -2.87808,2.42838 -4.32926,1.35989 -6.42757,0.38854 c -1.1229,0.0744 -2.52282,-0.12142 -4.2002,-0.58753 -0.77528,-0.21541 -1.93348,-0.95134 -3.47483,-2.2078 l -4.98857,-6.93978 1.97872,3.07663 c -4.03212,4.00458 -7.69416,5.64598 -10.98622,4.92421 -3.75673,-0.82362 -6.97208,-2.91473 -9.646086,-6.27331 l -2.93126,-5.77213 c -1.2729,-4.37603 -1.06031,-8.20815 0.6378,-11.49636 2.18277,-4.22673 6.320006,-9.12846 12.411716,-14.70519 3.08465,-3.42775 5.24321,-5.99104 6.47568,-7.68981 1.17322,-1.61709 3.6957,-6.4737 7.56717,-14.5698 9.2998,-1.42897 15.08722,-1.42897 17.36203,0 z"
       sodipodi:nodetypes="ccsccscccccccccscccsccscscc"
       style="fill:#ffffff;fill-opacity:1" />
    <path
       id="path7-7"
       fill="none"
       stroke="#555555"
       stroke-width="2.2485"
       stroke-linecap="round"
       stroke-linejoin="bevel"
       d="m 195.35323,215.79015 c -0.19021,8.43058 6.11003,17.18304 -0.72783,25.28394 7.56919,2.76023 15.15528,5.1188 23.06985,-0.32745 -1.53335,-4.47734 -3.97488,-2.06519 -3.26376,-23.56917 0,0 20.61317,-5.93557 24.53091,-14.60896 5.52103,-12.22288 4.31587,-33.03218 -7.40681,-39.54827 -15.45591,-8.5912 -48.36634,-21.8884 -49.81161,12.68697 -29.2629,-0.31374 -16.25957,40.98894 13.60925,40.08294 z"
       sodipodi:nodetypes="ccccascc"
       style="fill:#ffffff;fill-opacity:1" />
  </g>
  <g
     inkscape:groupmode="layer"
     id="layer2"
     inkscape:label="shapes">
    <path
       id="hair"
       fill="none"
       stroke="#555555"
       stroke-width="2.2485"
       stroke-linecap="round"
       stroke-linejoin="bevel"
       d="m 128.60131,157.37892 -0.57562,1.68368 2.73418,7.93271 -0.68354,0.91739"
       sodipodi:nodetypes="cccc"
       transform="translate(7.6543566e-7)" />
    <path
       id="filling"
       fill="#ffcb47"
       stroke="#ffcb47"
       stroke-width="0"
       d="m 139.83983,164.32329 c 2.91091,3.71848 7.95766,9.48981 15.1405,17.31401 4.28699,5.57226 7.02971,9.69398 8.22816,12.36565 0.86433,1.92674 1.70864,5.4018 2.53316,10.42517 l -0.39573,7.11246 c -1.11773,2.67527 -2.23479,4.42955 -3.35162,5.26217 -1.13549,0.84678 -3.77973,1.88109 -7.93271,3.10293 h -5.28847 l -3.50181,-2.2132 -1.35495,-3.31811 0.68354,5.53131 -1.33111,2.48167 -2.87808,2.42838 -4.32926,1.35989 -6.42757,0.38854 c -1.1229,0.0744 -2.52282,-0.12142 -4.2002,-0.58753 -0.77528,-0.21541 -1.93348,-0.95134 -3.47483,-2.2078 l -4.98857,-6.93978 1.97872,3.07663 c -4.03212,4.00458 -7.69416,5.64598 -10.98622,4.92421 -3.75673,-0.82362 -6.97208,-2.91473 -9.64609,-6.27331 l -2.93126,-5.77213 c -1.2729,-4.37603 -1.06031,-8.20815 0.6378,-11.49636 2.18277,-4.22673 6.32001,-9.12846 12.41172,-14.70519 3.08465,-3.42775 5.24321,-5.99104 6.47568,-7.68981 1.17322,-1.61709 3.6957,-6.4737 7.56717,-14.5698 9.2998,-1.42897 15.08722,-1.42897 17.36203,0 z"
       sodipodi:nodetypes="ccsccscccccccccscccsccscscc"
       style="fill:#ffc848;fill-opacity:0.5"
       transform="translate(7.6543566e-7)" />
    <path
       id="eye-left"
       fill="none"
       stroke="#555555"
       stroke-width="2.2485"
       stroke-linecap="round"
       stroke-linejoin="bevel"
       d="m 121.57679,188.86775 0.98333,-3.34577 1.70288,-1.33831 1.40307,1.54337 0.79147,2.56869 0.14391,1.51099"
       sodipodi:nodetypes="cccccc"
       transform="translate(7.6543566e-7)" />
    <path
       id="eye-right"
       fill="none"
       stroke="#555555"
       stroke-width="2.2485"
       stroke-linecap="round"
       stroke-linejoin="bevel"
       d="m 137.59459,192.06622 -0.51565,-2.86009 -0.77949,-1.44623 -1.09126,-0.87422 -1.35511,0.4425 -0.81546,1.31673 -0.1439,1.35989 -0.0241,1.198"
       sodipodi:nodetypes="cccccccc"
       transform="translate(7.6543566e-7)" />
    <path
       id="mouth"
       fill="#ffffff"
       stroke="#555555"
       stroke-width="2.2485"
       stroke-linecap="round"
       stroke-linejoin="bevel"
       d="m 121.81958,202.19511 1.00733,2.20174 1.95469,0.1511 2.2545,-1.14404 0.49169,-2.23411 -0.94739,-1.57575 -1.47502,-0.61519 -1.46301,1.0469 c -0.08,0 -0.68754,0.72312 -1.82279,2.16935 z"
       sodipodi:nodetypes="ccccccccc"
       transform="translate(7.6543566e-7)" />
    <path
       id="path7"
       fill="none"
       stroke="#555555"
       stroke-width="2.2485"
       stroke-linecap="round"
       stroke-linejoin="bevel"
       d="m 195.29252,215.51421 c -0.19021,8.43058 6.11003,17.18304 -0.72783,25.28394 7.56919,2.76023 15.15528,5.1188 23.06985,-0.32745 -1.53335,-4.47734 -3.97488,-2.06519 -3.26376,-23.56917 0,0 20.61317,-5.93557 24.53091,-14.60896 5.52103,-12.22288 4.31587,-33.03218 -7.40681,-39.54827 -15.45591,-8.5912 -48.36634,-21.8884 -49.81161,12.68697 -29.26289,-0.31374 -16.25956,40.98894 13.60925,40.08294 z"
       sodipodi:nodetypes="ccccascc"
       style="fill:#00aa2a;fill-opacity:0.5"
       transform="translate(7.6543566e-7)" />
    <path
       id="hair-5"
       fill="none"
       stroke="#555555"
       stroke-width="2.2485"
       stroke-linecap="round"
       stroke-linejoin="bevel"
       d="m 188.76015,206.22644 c -25.11377,-21.10077 1.17572,-31.16061 5.63854,-29.64644 10.16035,3.44726 13.27879,1.93744 16.29486,7.02569 4.2218,7.12239 9.09566,8.38361 -2.3209,24.73018"
       sodipodi:nodetypes="csac"
       transform="translate(7.6543566e-7)" />
    <path
       id="leg-right"
       fill="none"
       stroke="#555555"
       stroke-width="2.2485"
       stroke-linecap="round"
       stroke-linejoin="bevel"
       d="m 128.76395,236.0649 c -3.71893,-0.72723 -4.66994,0.39918 -4.85492,0.0456 -0.73776,-2.67716 -0.91714,-6.11581 -0.53816,-10.31599"
       sodipodi:nodetypes="ccc"
       transform="translate(7.6543566e-7)" />
    <path
       id="toes-right"
       fill="none"
       stroke="#555555"
       stroke-width="2.2485"
       stroke-linecap="round"
       stroke-linejoin="bevel"
       d="m 118.45169,241.06921 c 0.69956,-1.39913 2.60748,-3.05268 5.72374,-4.96057"
       sodipodi:nodetypes="cc"
       transform="translate(7.6543566e-7)" />
    <path
       id="leg-left"
       fill="none"
       stroke="#555555"
       stroke-width="2.2485"
       stroke-linecap="round"
       stroke-linejoin="bevel"
       d="m 145.19997,235.11096 c -4.32654,-0.27681 -5.90845,-0.058 -4.74572,0.65609 l -0.0241,-10.6525"
       sodipodi:nodetypes="ccc"
       transform="translate(7.6543566e-7)" />
    <path
       id="outline"
       fill="none"
       stroke="#555555"
       stroke-width="2.2485"
       stroke-linecap="round"
       stroke-linejoin="bevel"
       d="m 135.82363,157.21233 c 2.82659,6.98042 8.93194,15.05983 18.31606,24.23816 4.28699,5.57224 7.02971,9.69396 8.22816,12.36563 0.86433,1.92674 1.70864,5.4018 2.53316,10.42517 l -0.39573,7.11246 c -1.11773,2.67549 -2.23479,4.42955 -3.35162,5.26217 -1.13549,0.84678 -3.77973,1.88109 -7.93271,3.10292 h -5.28847 l -3.50181,-2.21319 -1.35495,-3.31812 0.68354,5.53131 -1.33111,2.48168 -2.87808,2.42838 -4.32926,1.35989 -6.42757,0.38854 c -1.1229,0.0744 -2.52282,-0.12142 -4.2002,-0.58753 -0.77528,-0.21541 -1.93348,-0.95134 -3.47483,-2.20781 l -4.98857,-6.93977 1.97872,3.07662 c -4.03212,4.00459 -7.69416,5.64599 -10.98622,4.92422 -3.75672,-0.82362 -6.97208,-2.91473 -9.64609,-6.27331 l -2.93125,-5.77213 c -1.27291,-4.37603 -1.06031,-8.20793 0.63779,-11.49636 2.18277,-4.22673 6.32001,-9.12846 12.41172,-14.70519 3.08465,-3.42784 5.24321,-5.99113 6.47568,-7.68981 1.17322,-1.6171 4.09616,-7.14838 8.76923,-16.59391 l -1.07929,-3.64257"
       sodipodi:nodetypes="ccsccscccccccccscccsccscscc"
       transform="translate(7.6543566e-7)" />
    <path
       id="toes-left"
       fill="none"
       stroke="#555555"
       stroke-width="2.2485"
       stroke-linecap="round"
       stroke-linejoin="bevel"
       d="m 134.99977,239.76126 c 2.09684,-2.51279 4.06909,-4.06459 5.91678,-4.65543"
       sodipodi:nodetypes="cc"
       transform="translate(7.6543566e-7)" />
    <path
       d="m 214.07373,155.53608 c 0,0 -9.97895,1.83234 -13.05552,5.87733 -3.07658,4.04499 -6.16631,9.76655 -0.22075,15.51585"
       style="fill:none;stroke:#555555;stroke-width:2.2485;stroke-linecap:round;stroke-linejoin:bevel"
       id="path1-2"
       sodipodi:nodetypes="csc"
       transform="translate(7.6543566e-7)" />
    <path
       d="m 205.79473,211.94781 c -3.00205,7.43107 1.66972,16.8043 -0.3305,25.28394"
       style="fill:none;stroke:#555555;stroke-width:2.2485;stroke-linecap:round;stroke-linejoin:bevel"
       id="path1-7"
       transform="translate(7.6543566e-7)" />
    <path
       id="eye-right-6"
       fill="none"
       stroke="#555555"
       stroke-width="2.2485"
       stroke-linecap="round"
       stroke-linejoin="bevel"
       d="m 191.91063,198.55072 c 1.19729,1.45187 2.54068,2.05517 3.38688,1.9033 0.8462,-0.15187 2.4282,-0.868 3.26956,-1.22694 0.84136,-0.35894 1.52105,-0.96884 1.99051,-1.98432"
       sodipodi:nodetypes="czzc"
       transform="translate(7.6543566e-7)" />
    <path
       id="eye-right-6-6"
       fill="none"
       stroke="#555555"
       stroke-width="2.2485"
       stroke-linecap="round"
       stroke-linejoin="bevel"
       d="m 217.43625,177.22718 c 1.77294,0.63095 3.23549,0.45873 3.88359,-0.10614 0.6481,-0.56488 1.63779,-1.99178 2.17541,-2.73185 0.5376,-0.74007 0.80762,-1.61246 0.68895,-2.72488"
       sodipodi:nodetypes="czzc"
       transform="translate(7.6543566e-7)" />
    <path
       d="m 189.48955,187.93303 -0.38789,1.68368"
       style="fill:none;stroke:#555555;stroke-width:2.2485;stroke-linecap:round;stroke-linejoin:bevel"
       id="path1-3"
       transform="translate(7.6543566e-7)" />
    <path
       d="m 197.86437,187.48975 -0.38789,1.68368"
       style="fill:none;stroke:#555555;stroke-width:2.2485;stroke-linecap:round;stroke-linejoin:bevel"
       id="path1-3-2"
       transform="translate(7.6543566e-7)" />
    <path
       d="m 208.07765,170.47927 0.38943,1.68332"
       style="fill:none;stroke:#555555;stroke-width:2.2485;stroke-linecap:round;stroke-linejoin:bevel"
       id="path1-3-7"
       transform="translate(7.6543566e-7)" />
    <path
       d="m 215.04735,167.834 0.38943,1.68331"
       style="fill:none;stroke:#555555;stroke-width:2.2485;stroke-linecap:round;stroke-linejoin:bevel"
       id="path1-3-29"
       transform="translate(7.6543566e-7)" />
  </g>
</svg>
